<?xml version="1.0" encoding="UTF-8" standalone="no"?>
<!-- Created with Inkscape (http://www.inkscape.org/) -->

<svg
   width="420mm"
   height="297mm"
   viewBox="0 0 1587.4016 1122.5197"
   version="1.1"
   id="svg5"
   sodipodi:docname="background_graphics.svg"
   inkscape:version="1.1.2 (b8e25be833, 2022-02-05)"
   xmlns:inkscape="http://www.inkscape.org/namespaces/inkscape"
   xmlns:sodipodi="http://sodipodi.sourceforge.net/DTD/sodipodi-0.dtd"
   xmlns="http://www.w3.org/2000/svg"
   xmlns:svg="http://www.w3.org/2000/svg">
  <sodipodi:namedview
     id="namedview7"
     pagecolor="#505050"
     bordercolor="#eeeeee"
     borderopacity="1"
     inkscape:pageshadow="0"
     inkscape:pageopacity="0"
     inkscape:pagecheckerboard="0"
     inkscape:document-units="px"
     showgrid="false"
     inkscape:snap-nodes="true"
     inkscape:object-paths="true"
     inkscape:zoom="0.37685185"
     inkscape:cx="707.17445"
     inkscape:cy="367.51843"
     inkscape:window-width="1920"
     inkscape:window-height="1009"
     inkscape:window-x="-8"
     inkscape:window-y="-8"
     inkscape:window-maximized="1"
     inkscape:current-layer="layer1"
     units="mm" />
  <defs
     id="defs2">
    <inkscape:path-effect
       effect="bspline"
       id="path-effect10536"
       is_visible="true"
       lpeversion="1"
       weight="33.333333"
       steps="2"
       helper_size="0"
       apply_no_weight="true"
       apply_with_weight="true"
       only_selected="false" />
    <inkscape:path-effect
       effect="bspline"
       id="path-effect10532"
       is_visible="true"
       lpeversion="1"
       weight="33.333333"
       steps="2"
       helper_size="0"
       apply_no_weight="true"
       apply_with_weight="true"
       only_selected="false" />
    <inkscape:path-effect
       effect="bspline"
       id="path-effect10528"
       is_visible="true"
       lpeversion="1"
       weight="33.333333"
       steps="2"
       helper_size="0"
       apply_no_weight="true"
       apply_with_weight="true"
       only_selected="false" />
    <inkscape:path-effect
       effect="bspline"
       id="path-effect10524"
       is_visible="true"
       lpeversion="1"
       weight="33.333333"
       steps="2"
       helper_size="0"
       apply_no_weight="true"
       apply_with_weight="true"
       only_selected="false" />
    <inkscape:path-effect
       effect="bspline"
       id="path-effect10520"
       is_visible="true"
       lpeversion="1"
       weight="33.333333"
       steps="2"
       helper_size="0"
       apply_no_weight="true"
       apply_with_weight="true"
       only_selected="false" />
    <inkscape:path-effect
       effect="bspline"
       id="path-effect9246"
       is_visible="true"
       lpeversion="1"
       weight="33.333333"
       steps="2"
       helper_size="0"
       apply_no_weight="true"
       apply_with_weight="true"
       only_selected="false" />
    <inkscape:path-effect
       effect="bspline"
       id="path-effect8983"
       is_visible="true"
       lpeversion="1"
       weight="33.333333"
       steps="2"
       helper_size="0"
       apply_no_weight="true"
       apply_with_weight="true"
       only_selected="false" />
    <inkscape:path-effect
       effect="bspline"
       id="path-effect8502"
       is_visible="true"
       lpeversion="1"
       weight="33.333333"
       steps="2"
       helper_size="0"
       apply_no_weight="true"
       apply_with_weight="true"
       only_selected="false" />
    <inkscape:path-effect
       effect="bspline"
       id="path-effect8498"
       is_visible="true"
       lpeversion="1"
       weight="33.333333"
       steps="2"
       helper_size="0"
       apply_no_weight="true"
       apply_with_weight="true"
       only_selected="false" />
    <inkscape:path-effect
       effect="bspline"
       id="path-effect8494"
       is_visible="true"
       lpeversion="1"
       weight="33.333333"
       steps="2"
       helper_size="0"
       apply_no_weight="true"
       apply_with_weight="true"
       only_selected="false" />
    <inkscape:path-effect
       effect="bspline"
       id="path-effect8038"
       is_visible="true"
       lpeversion="1"
       weight="33.333333"
       steps="2"
       helper_size="0"
       apply_no_weight="true"
       apply_with_weight="true"
       only_selected="false" />
    <inkscape:path-effect
       effect="bspline"
       id="path-effect8034"
       is_visible="true"
       lpeversion="1"
       weight="33.333333"
       steps="2"
       helper_size="0"
       apply_no_weight="true"
       apply_with_weight="true"
       only_selected="false" />
    <inkscape:path-effect
       effect="bspline"
       id="path-effect8030"
       is_visible="true"
       lpeversion="1"
       weight="33.333333"
       steps="2"
       helper_size="0"
       apply_no_weight="true"
       apply_with_weight="true"
       only_selected="false" />
    <inkscape:path-effect
       effect="bspline"
       id="path-effect8026"
       is_visible="true"
       lpeversion="1"
       weight="33.333333"
       steps="2"
       helper_size="0"
       apply_no_weight="true"
       apply_with_weight="true"
       only_selected="false" />
    <inkscape:path-effect
       effect="bspline"
       id="path-effect8018"
       is_visible="true"
       lpeversion="1"
       weight="33.333333"
       steps="2"
       helper_size="0"
       apply_no_weight="true"
       apply_with_weight="true"
       only_selected="false" />
    <inkscape:path-effect
       effect="bspline"
       id="path-effect8014"
       is_visible="true"
       lpeversion="1"
       weight="33.333333"
       steps="2"
       helper_size="0"
       apply_no_weight="true"
       apply_with_weight="true"
       only_selected="false" />
    <inkscape:path-effect
       effect="bspline"
       id="path-effect2149"
       is_visible="true"
       lpeversion="1"
       weight="33.333333"
       steps="2"
       helper_size="0"
       apply_no_weight="true"
       apply_with_weight="true"
       only_selected="false" />
    <inkscape:path-effect
       effect="bspline"
       id="path-effect1707"
       is_visible="true"
       lpeversion="1"
       weight="33.333333"
       steps="2"
       helper_size="0"
       apply_no_weight="true"
       apply_with_weight="true"
       only_selected="false" />
    <inkscape:path-effect
       effect="bspline"
       id="path-effect1703"
       is_visible="true"
       lpeversion="1"
       weight="33.333333"
       steps="2"
       helper_size="0"
       apply_no_weight="true"
       apply_with_weight="true"
       only_selected="false" />
    <inkscape:path-effect
       effect="bspline"
       id="path-effect1666"
       is_visible="true"
       lpeversion="1"
       weight="33.333333"
       steps="2"
       helper_size="0"
       apply_no_weight="true"
       apply_with_weight="true"
       only_selected="false" />
    <inkscape:path-effect
       effect="bspline"
       id="path-effect1272"
       is_visible="true"
       lpeversion="1"
       weight="33.333333"
       steps="2"
       helper_size="0"
       apply_no_weight="true"
       apply_with_weight="true"
       only_selected="false" />
    <inkscape:path-effect
       effect="bspline"
       id="path-effect1268"
       is_visible="true"
       lpeversion="1"
       weight="33.333333"
       steps="2"
       helper_size="0"
       apply_no_weight="true"
       apply_with_weight="true"
       only_selected="false" />
    <inkscape:path-effect
       effect="bspline"
       id="path-effect913"
       is_visible="true"
       lpeversion="1"
       weight="33.333333"
       steps="2"
       helper_size="0"
       apply_no_weight="true"
       apply_with_weight="true"
       only_selected="false" />
  </defs>
  <g
     inkscape:label="Réteg 1"
     inkscape:groupmode="layer"
     id="layer1">
    <path
       style="fill:none;stroke:#000000;stroke-width:1.02172px;stroke-linecap:butt;stroke-linejoin:miter;stroke-opacity:1"
       d="m 25.30666,31.842752 c 31.394873,61.917679 62.789132,123.834148 119.5769,160.983628 56.78776,37.14947 138.96521,49.53252 178.20739,96.41332 39.24218,46.88081 35.54881,128.25511 84.02687,183.97993 48.47807,55.72483 149.12236,85.79794 201.75337,135.77442 52.63101,49.97647 57.24772,119.85222 109.41915,164.52031 52.17144,44.66809 151.89237,64.12716 208.21705,96.85537 56.32468,32.72821 69.25149,78.72238 96.95321,112.77639 27.7017,34.05398 70.1754,56.16658 95.1057,80.04918 24.9304,23.8826 32.3172,49.5332 39.7037,75.1831"
       id="path8012"
       inkscape:path-effect="#path-effect8014"
       inkscape:original-d="m 25.30666,31.842752 c 31.395301,61.917462 62.789561,123.833928 94.18277,185.749388 82.18177,12.38454 164.35922,24.76758 246.53726,37.14987 -3.69248,81.37855 -7.38585,162.75285 -11.08033,244.12777 100.64934,30.07531 201.29363,60.14842 301.93888,90.22113 4.61794,69.87955 9.23465,139.7553 13.8504,209.63145 99.72599,19.46085 199.44692,38.91992 299.16878,58.37838 12.92836,45.997 25.85516,91.99117 38.78118,137.98526 42.4765,22.1145 84.9502,44.227 127.4237,66.3391 7.3881,25.6526 14.7749,51.3032 22.1607,76.9533" />
    <path
       style="fill:none;stroke:#000000;stroke-width:1.02172px;stroke-linecap:butt;stroke-linejoin:miter;stroke-opacity:1"
       d="m 172.12098,-58.378378 c 30.47156,55.7260245 60.94245,111.450842 112.65166,155.676887 51.70921,44.226041 124.65323,76.952661 183.74843,139.754911 59.0952,62.80224 104.33896,155.67507 159.27988,215.82242 54.94092,60.14735 119.57485,87.56695 165.74287,126.48671 46.16801,38.91977 73.86827,89.33645 122.80738,125.15935 48.93911,35.82289 119.1131,57.05097 167.1277,100.39357 48.0146,43.3426 73.8682,108.79584 120.4989,170.27046 46.6307,61.47457 114.0346,118.96727 181.4389,176.46027"
       id="path8016"
       inkscape:path-effect="#path-effect8018"
       inkscape:original-d="m 172.12098,-58.378378 c 30.47194,55.7258153 60.94284,111.450631 91.41269,167.174448 72.94798,32.72893 145.892,65.45554 218.83644,98.18182 45.24661,92.87755 90.49037,185.75038 135.73399,278.62408 64.63757,27.42169 129.2715,54.84129 193.9057,82.26044 27.70241,50.4197 55.40267,100.83638 83.10244,151.25307 70.17789,21.22992 140.35186,42.458 210.52616,63.6855 25.8557,65.45686 51.7093,130.91009 77.5623,196.36364 67.4077,57.49598 134.8116,114.98868 202.216,172.48158" />
    <path
       style="fill:none;stroke:#000000;stroke-width:1.02172px;stroke-linecap:butt;stroke-linejoin:miter;stroke-opacity:1"
       d="m 410.34799,-47.764128 c 80.33353,57.4946922 160.66589,114.988549 230.84178,177.790338 70.17589,62.80178 130.19312,130.90854 183.28696,174.69224 53.09383,43.7837 99.26097,63.24279 145.89108,90.22117 46.63009,26.97838 93.72059,61.47403 138.50399,97.73982 44.7833,36.26579 87.257,74.29943 129.7318,142.40864 42.4747,68.10922 84.9484,166.28908 145.4296,256.51095 60.4811,90.22186 138.9652,172.48057 217.4499,254.74007"
       id="path8024"
       inkscape:path-effect="#path-effect8026"
       inkscape:original-d="M 410.34799,-47.764128 C 490.6814,9.7307297 571.01376,67.224587 651.34507,124.71744 c 60.02068,68.11047 120.03792,136.21722 180.0553,204.32433 46.16999,19.46085 92.33714,38.91992 138.50405,58.37838 47.09338,34.498 94.18388,68.99363 141.27418,103.48894 42.4765,38.03616 84.9502,76.0698 127.4237,114.1032 42.4765,98.18478 84.9503,196.36463 127.4238,294.54545 78.4883,82.26309 156.9723,164.52186 235.457,246.78136" />
    <path
       style="fill:none;stroke:#000000;stroke-width:1.02172px;stroke-linecap:butt;stroke-linejoin:miter;stroke-opacity:1"
       d="m -30.09497,225.55283 c 29.54831871,44.22721 59.095853,88.45326 99.262724,113.66165 40.166866,25.20839 90.950676,31.39991 114.957436,61.91683 24.00675,30.51692 21.23672,85.35613 56.78748,124.27499 35.55076,38.91887 109.41811,61.91595 148.19871,101.7203 38.78059,39.80434 42.47396,96.41254 102.95583,142.40764 60.48187,45.9951 177.74631,81.37523 232.22381,121.17931 54.4775,39.80409 46.16742,84.02924 59.55719,112.33385 13.38976,28.3047 48.47675,40.6877 84.48811,61.9167 36.01137,21.229 72.94512,51.3022 109.8784,81.375"
       id="path8028"
       inkscape:path-effect="#path-effect8030"
       inkscape:original-d="m -30.09497,225.55283 c 29.54858046,44.22704 59.096117,88.45308 88.642608,132.67813 50.786882,6.19277 101.570692,12.38429 152.354482,18.57494 -2.76909,54.84239 -5.53912,109.68159 -8.31024,164.52088 73.87136,22.999 147.73871,45.99609 221.60651,68.99263 3.69456,56.61147 7.38794,113.21967 11.08032,169.82801 117.27018,35.38254 234.53462,70.76267 351.80036,106.14251 -8.30937,44.22793 -16.61944,88.45308 -24.93073,132.67817 35.08944,12.3845 70.17643,24.7675 105.26309,37.1498 36.9362,30.0753 73.86993,60.1485 110.80329,90.2212" />
    <path
       style="fill:none;stroke:#000000;stroke-width:1.02172px;stroke-linecap:butt;stroke-linejoin:miter;stroke-opacity:1"
       d="m -71.646192,440.4914 c 54.479491,14.15265 108.957761,28.30498 131.117626,61.03299 22.159864,32.72801 12.0031,84.0292 38.32019,117.64093 26.317086,33.61172 89.104346,49.53278 117.266116,84.91444 28.16176,35.38167 21.69837,90.22086 60.01928,121.62105 38.32091,31.40019 121.4217,39.36072 166.20424,72.53134 44.78254,33.17061 51.24594,91.54782 89.10495,127.81285 37.85901,36.2651 107.10966,50.4172 144.04364,68.5505 36.93398,18.1334 41.55071,40.246 46.16727,62.3578"
       id="path8032"
       inkscape:path-effect="#path-effect8034"
       inkscape:original-d="m -71.646192,440.4914 c 54.479314,14.15333 108.957583,28.30567 163.434811,42.457 -10.156127,51.30424 -20.312891,102.60543 -30.470899,153.90664 62.79082,15.92269 125.57807,31.84375 188.36554,47.76412 -6.46261,54.8424 -12.92601,109.68159 -19.39057,164.52089 83.10515,7.96185 166.20594,15.92238 249.30734,23.88206 6.46469,58.38055 12.92809,116.75776 19.39056,175.13509 69.25447,14.1537 138.50513,28.3057 207.75611,42.4571 4.61795,22.1144 9.23465,44.227 13.85042,66.339" />
    <path
       style="fill:none;stroke:#000000;stroke-width:1.02172px;stroke-linecap:butt;stroke-linejoin:miter;stroke-opacity:1"
       d="m -24.554807,724.4226 c 37.859021,17.691 75.716802,35.38142 98.338678,67.22491 22.621876,31.84349 30.008609,77.83766 61.403919,105.6997 31.39532,27.86204 86.79584,37.59157 118.18969,61.47449 31.39385,23.88292 38.78058,61.9166 66.48237,86.2406 27.7018,24.3239 75.71557,34.938 102.49261,52.6291 26.77703,17.6911 32.31709,42.4572 37.857,67.2226"
       id="path8036"
       inkscape:path-effect="#path-effect8038"
       inkscape:original-d="m -24.554807,724.4226 c 37.858825,17.69142 75.716605,35.38184 113.573343,53.07126 7.388071,45.997 14.774804,91.99117 22.160644,137.98526 55.40379,9.73092 110.80431,19.46045 166.20489,29.18918 7.38808,38.03616 14.77482,76.0698 22.16065,114.1032 48.01676,10.6155 96.03055,21.2295 144.04424,31.8428 5.54132,24.768 11.08137,49.5341 16.6205,74.2997" />
    <path
       style="fill:none;stroke:#000000;stroke-width:1.02172px;stroke-linecap:butt;stroke-linejoin:miter;stroke-opacity:1"
       d="m 460.20946,1164.914 c 86.7969,-2.6536 173.59278,-5.3072 259.92784,-8.403 86.33507,-3.0959 172.20587,-6.6339 245.15196,-9.7297 72.94614,-3.0959 132.96324,-5.7494 200.83104,-4.8648 67.8679,0.8847 143.582,5.3072 217.4515,6.6339 73.8695,1.3267 145.8903,-0.4423 217.9113,-2.2113"
       id="path8492"
       inkscape:path-effect="#path-effect8494"
       inkscape:original-d="m 460.20946,1164.914 c 86.79693,-2.6526 173.59281,-5.3061 260.38766,-7.9607 85.87529,-3.5371 171.74609,-7.0751 257.6176,-10.6142 60.02068,-2.6526 120.03778,-5.3061 180.05528,-7.9607 75.7181,4.4237 151.4322,8.8462 227.1467,13.2678 72.0246,-1.7681 144.0454,-3.5371 216.0664,-5.3071" />
    <path
       style="fill:none;stroke:#000000;stroke-width:1.02172px;stroke-linecap:butt;stroke-linejoin:miter;stroke-opacity:1"
       d="m -71.646192,440.4914 c 13.850259,-71.64542 27.700666,-143.29161 34.16426,-221.57243 6.463595,-78.28083 5.540253,-163.193142 14.774545,-195.477934 9.234291,-32.2847924 28.6244735,-11.941219 48.014047,8.401716"
       id="path8496"
       inkscape:path-effect="#path-effect8498"
       inkscape:original-d="m -71.646192,440.4914 c 13.851451,-71.64519 27.701859,-143.29138 41.551222,-214.93857 -0.922335,-84.9147 -1.845677,-169.827013 -2.77008,-254.742019 19.392002,20.3453871 38.7821839,40.688961 58.17171,61.031941" />
    <path
       style="opacity:0.3;fill:#4d4d4d;stroke:#000000;stroke-width:1.02172px;stroke-linecap:butt;stroke-linejoin:miter;stroke-opacity:1"
       d="m -21.72815,20.321125 c 0.90447,-27.1167248 1.808972,-54.234413 34.118342,-67.351463 32.30937,-13.11705 96.019968,-12.232546 167.581218,-10.021192 71.56124,2.211354 150.96866,5.749367 230.37658,9.287402"
       id="path8500"
       inkscape:path-effect="#path-effect8502"
       inkscape:original-d="m -21.72815,20.321125 c 0.905546,-27.1166889 1.810048,-54.234377 2.713507,-81.353066 63.714191,0.885539 127.424793,1.770042 191.135623,2.653563 79.41163,3.539154 158.81905,7.077167 238.22701,10.61425" />
    <path
       style="fill:#333333;stroke:#000000;stroke-width:1.02172px;stroke-linecap:butt;stroke-linejoin:miter;stroke-opacity:1"
       d="m -71.646192,440.4914 c 15.697317,94.64487 31.394447,189.28861 47.091385,283.9312"
       id="path8981"
       inkscape:path-effect="#path-effect8983"
       inkscape:original-d="m -71.646192,440.4914 c 15.698172,94.64473 31.3953,189.28847 47.091385,283.9312" />
    <path
       style="opacity:0.3;fill:#333333;fill-opacity:0.374781;stroke-width:2.71547"
       d="m 457.5913,1146.5104 c -5.83174,-20.638 -16.79818,-38.0143 -30.14665,-47.7674 -5.39099,-3.939 -25.15503,-13.8071 -43.92011,-21.9291 -58.82498,-25.4611 -66.45523,-31.5972 -92.97045,-74.7647 C 281.92652,988.00321 269.14147,971.0236 262.1429,964.31672 249.67963,952.3729 242.4816,948.55222 178.42673,919.88071 132.91554,899.5095 121.8975,887.04678 93.027794,823.28419 73.841804,780.90936 52.594772,760.33085 2.3763774,735.48504 l -24.9454784,-12.34188 -2.750303,-15.28165 c -12.941158,-71.90559 -42.871998,-260.94985 -41.520432,-262.24456 3.050737,-2.92242 52.703126,12.21027 78.296089,23.8625 28.052288,12.77194 45.97345,28.1398 52.639759,45.13996 2.326245,5.9323 7.300519,26.24481 11.053944,45.13892 11.371064,57.24007 20.033421,68.43054 79.749624,103.0246 56.83057,32.92239 64.27411,41.50909 81.03711,93.48243 22.00548,68.2275 32.89756,78.05247 117.62463,106.10111 67.617,22.38436 92.44676,36.91286 113.44675,66.38046 4.16029,5.83784 16.17467,26.70957 26.69857,46.38159 30.78446,57.54458 47.55958,70.58288 131.53253,102.23258 25.2539,9.5183 51.68102,20.8082 58.72691,25.0886 14.63692,8.892 25.59863,23.313 31.14858,40.9783 l 3.83244,12.1985 h -16.3362 c -17.6465,0 -148.51272,4.2295 -205.26534,6.634 l -34.88605,1.478 z"
       id="path9059" />
    <path
       style="fill:none;stroke:#000000;stroke-width:1.02172px;stroke-linecap:butt;stroke-linejoin:miter;stroke-opacity:1"
       d="m -30.09497,225.55283 c -1.002879,-26.34043 -2.005798,-52.6819 -3.008757,-79.02441"
       id="path9244"
       inkscape:path-effect="#path-effect9246"
       inkscape:original-d="m -30.09497,225.55283 c -1.001875,-26.34047 -2.004794,-52.68194 -3.008757,-79.02441" />
    <path
       style="opacity:0.3;fill:#999999;fill-opacity:0.374781;stroke-width:2.71547"
       d="m 718.04651,1139.6875 c -9.51094,-30.4155 -24.31059,-40.6782 -99.89152,-69.2692 -52.96883,-20.0372 -80.02303,-36.2521 -96.61311,-57.9052 -6.30903,-8.2344 -20.67093,-31.96993 -31.91529,-52.74555 -32.17907,-59.4554 -48.24555,-71.74461 -129.14007,-98.779 -53.14002,-17.75905 -74.9078,-28.28549 -89.19415,-43.13241 -14.91962,-15.50501 -17.46,-20.56968 -30.89365,-61.59078 C 222.64054,702.03872 215.65383,694.09907 152.73041,656.63963 132.92432,644.84871 112.62164,631.41542 107.61334,626.78784 93.856865,614.07715 86.114869,595.42422 78.271696,556.09449 69.390358,511.55888 61.722301,495.70559 42.250421,481.62258 24.073289,468.47598 4.3625309,460.12173 -36.41076,448.28265 c -17.74593,-5.15278 -32.40536,-9.61081 -32.576512,-9.90675 -0.171151,-0.29593 4.372399,-25.61423 10.096779,-56.26288 5.72438,-30.64865 13.062963,-77.21867 16.30796,-103.48894 3.244998,-26.27027 6.911727,-54.92875 8.148286,-63.68551 l 2.248293,-15.92137 0.352972,14.2041 c 0.323783,13.02953 2.098084,16.7144 21.456594,44.561 24.608209,35.39814 56.971426,69.52588 78.702893,82.99398 8.425469,5.2217 31.186469,16.0126 50.580005,23.9798 40.21021,16.51903 58.75265,28.68335 67.89474,44.5407 3.50352,6.07699 12.44731,28.97658 19.87511,50.88797 20.62794,60.85074 34.04912,76.39414 96.54249,111.80825 76.18586,43.17343 88.64953,54.86317 121.68353,114.1275 42.53128,76.30282 60.98795,91.1814 182.50358,147.1224 79.68411,36.68343 94.27632,44.15889 114.19004,58.49864 28.54282,20.55351 41.5461,40.97231 51.31876,80.58461 10.84481,43.95835 18.63893,52.64575 75.05109,83.65315 15.2052,8.3577 36.39632,21.2601 47.09138,28.672 22.24388,15.4155 76.69662,58.1471 75.52577,59.2687 -0.42914,0.4111 -47.50245,2.5968 -104.60744,4.8571 -57.10497,2.2604 -112.6621,4.6194 -123.46027,5.2424 l -19.63302,1.1326 z"
       id="path9322" />
    <path
       style="opacity:0.3;fill:#cccccc;fill-opacity:0.374781;stroke-width:2.71547"
       d="m 953.25142,1123.5794 c -40.3827,-32.035 -68.33216,-51.4274 -98.1833,-68.1232 -61.46747,-34.3789 -67.38725,-40.7414 -78.56068,-84.43542 C 760.16352,907.10715 739.70195,889.10828 622.97778,835.96946 488.19346,774.60872 468.57765,759.10862 427.08751,681.17999 398.37564,627.25209 386.58,615.90206 317.55026,575.78072 239.91626,530.65842 228.70311,518.21059 208.67213,454.91394 188.82443,392.19643 184.45756,387.67091 116.47779,359.37011 98.328113,351.81417 76.960195,341.50123 68.993538,336.45243 48.114014,323.22025 19.377133,292.55223 -6.7673818,255.60032 l -22.7505112,-32.15491 -0.03065,-67.93892 C -29.593284,56.344476 -22.85516,9.2874693 -8.6113552,9.2874693 c 3.1056351,0 10.9872814,4.1921977 17.5147677,9.3159947 9.2125895,7.231489 16.0223555,17.176787 30.4339565,44.447175 52.019237,98.433531 83.765881,128.311081 176.792861,166.384121 71.8203,29.39381 100.58684,48.73659 117.38511,78.93045 4.70294,8.45319 14.99858,35.66919 22.87921,60.48 31.94766,100.58146 49.89915,121.07264 159.21653,181.74184 92.70694,51.4507 106.44554,65.03482 147.92515,146.26172 40.91951,80.13008 58.94346,94.12747 180.77389,140.38896 30.70377,11.65885 64.04395,25.57247 74.08924,30.91913 27.21354,14.4846 56.4216,44.07708 79.37178,80.41629 22.99066,36.40357 42.90276,57.50705 80.56986,85.39025 45.6956,33.8264 63.1545,55.4124 73.9476,91.4273 l 4.06,13.5479 -75.2165,1.8159 c -41.3692,0.9987 -80.8407,2.4814 -87.71449,3.2948 -12.34805,1.4612 -12.82963,1.2158 -40.16619,-20.4699 z"
       id="path9509" />
    <path
       style="opacity:0.3;fill:#f9f9f9;fill-opacity:0.374781;stroke-width:2.71547"
       d="m 1278.7686,1143.5448 c -49.5152,-1.8317 -96.424,-3.4449 -104.2418,-3.585 l -14.2141,-0.2547 -3.2786,-12.6044 c -5.2578,-20.2126 -21.0436,-48.8072 -33.9319,-61.4642 -6.558,-6.4404 -26.2588,-22.7161 -43.7795,-36.1682 -42.6114,-32.71632 -51.0113,-41.62698 -78.1066,-82.85517 -30.74066,-46.77491 -53.12312,-68.51746 -88.09832,-85.57976 -6.85596,-3.3446 -40.74178,-17.06036 -75.30184,-30.47946 C 761.16199,800.79047 737.49304,788.34555 713.39518,765.13468 697.11829,749.45692 691.89902,741.50523 667.02654,694.49103 621.3569,608.16578 612.96191,600.05195 510.07093,542.79216 409.76273,486.96972 391.88453,466.32553 361.72837,371.49877 353.83821,346.68796 343.68913,319.37107 339.1749,310.79455 322.11447,278.38194 296.32093,259.13823 235.74097,233.62589 175.10421,208.08962 171.55761,206.4169 150.75357,193.54221 111.28864,169.11916 81.947797,133.51689 45.749158,66.129557 19.539323,17.337359 0.70773325,-1.3469909 -14.434798,6.4161632 -19.709472,9.1203426 -19.961878,8.6878703 -18.564063,-0.65892472 -16.264748,-16.033797 -6.1160071,-33.884851 3.9595486,-40.27667 18.80195,-49.692522 48.832882,-54.699443 100.21742,-56.325309 c 25.96548,-0.821578 52.76602,-0.685304 59.55676,0.30283 l 12.3468,1.796608 16.40478,29.202566 c 31.22467,55.583855 64.16789,98.278508 96.23158,124.716866 10.1495,8.368829 40.06637,29.875339 66.48196,47.792259 59.25569,40.19138 80.87605,56.98291 107.81988,83.73881 26.90871,26.721 42.30501,46.90551 93.73324,122.88391 23.0468,34.04861 49.80149,71.59307 59.45492,83.43218 29.05794,35.63711 65.96482,66.4213 125.20276,104.43215 42.19994,27.07817 65.82406,47.01795 95.76736,80.83171 70.03783,79.09087 76.15018,84.07487 151.0035,123.12857 60.06054,31.33584 79.38024,43.76288 102.24004,65.76433 21.9997,21.1735 34.5382,38.40932 75.9998,104.47167 15.8098,25.19035 36.8705,56.23703 46.8015,68.99263 18.1184,23.27152 104.2219,108.06262 145.6835,143.46302 12.1884,10.4066 20.2908,18.7701 18.0055,18.5856 -2.2853,-0.1844 -44.6676,-1.834 -94.1827,-3.6656 z"
       id="path9881" />
    <path
       style="opacity:0.3;fill:#999999;fill-opacity:0.374781;stroke-width:2.71547"
       d="m 1341.0954,1110.7966 c -55.7568,-49.1332 -104.1141,-97.5049 -128.3305,-128.36884 -10.9655,-13.97552 -35.3596,-49.89261 -54.2093,-79.81577 -18.8497,-29.92316 -39.8708,-61.36027 -46.7135,-69.86021 -26.9879,-33.52363 -56.5837,-54.79636 -126.70222,-91.07017 C 917.53639,706.70883 902.93352,695.08556 846.77386,631.54791 805.77438,585.1621 793.66382,574.73365 735.83256,536.01581 644.07425,474.58395 626.55957,456.63029 555.75848,351.4285 505.1109,276.1724 491.93866,259.05936 460.39067,227.52936 433.46918,200.62321 403.97828,177.88558 339.60742,134.40487 298.59845,106.70446 276.23768,88.492891 257.28833,67.360643 237.66964,45.481963 211.25524,7.1830853 191.7766,-27.626363 l -15.43771,-27.58809 51.90763,1.75009 c 28.5492,0.96255 81.18492,3.079933 116.96827,4.705296 l 65.06064,2.955205 51.28278,37.3109304 C 581.13026,78.502029 628.4263,118.279 720.59712,209.36424 c 103.31877,102.1019 126.51451,120.10008 224.37657,174.09963 100.94991,55.70335 206.34221,139.43782 257.69011,204.7356 27.5211,34.99763 41.4681,58.15989 94.6355,157.16277 48.1049,89.57592 80.2505,142.74641 112.2947,185.74092 38.2893,51.37372 97.3433,119.44564 160.4607,184.96354 l 27.0761,28.1061 -60.1507,1.74 c -33.0829,0.957 -81.3419,1.6858 -107.242,1.6195 l -47.0915,-0.1204 -41.5512,-36.6152 z"
       id="path10031" />
    <path
       style="fill:none;stroke:#000000;stroke-width:1px;stroke-linecap:butt;stroke-linejoin:miter;stroke-opacity:1"
       d="m 713.80835,-37.149877 c 83.14598,81.376914 166.29094,162.752837 261.82033,239.706757 95.52942,76.95392 203.43882,149.48318 286.14182,252.53143 82.7029,103.04824 140.1956,236.60822 201.2285,332.13692 61.0328,95.52871 125.6016,153.02141 149.2714,206.53523 23.6698,53.51384 6.4413,103.04604 -10.7873,152.57864"
       id="path10518"
       inkscape:path-effect="#path-effect10520"
       inkscape:original-d="m 713.80835,-37.149877 c 83.14597,81.376921 166.29093,162.752847 249.43489,244.127767 107.91466,72.53316 215.82406,145.06242 323.73466,217.59213 57.496,133.56633 114.9887,267.12631 172.4816,400.68797 64.5723,57.496 129.141,114.98871 193.71,172.48157 -17.2281,49.53514 -34.4566,99.06734 -51.6864,148.59954" />
    <path
       style="fill:none;stroke:#000000;stroke-width:1px;stroke-linecap:butt;stroke-linejoin:miter;stroke-opacity:1"
       d="m 1058.7715,-66.339066 c 62.802,55.725769 125.603,111.450601 185.7511,158.772781 60.148,47.322185 117.6407,86.240315 160.5398,167.617665 42.8991,81.37734 71.2032,205.20779 107.9115,300.73671 36.7084,95.52892 81.818,162.75117 108.7957,227.76406 26.9776,65.01288 35.8227,127.81261 32.9259,174.21933 -2.8967,46.40672 -17.5345,76.41872 -32.1724,106.43102"
       id="path10522"
       inkscape:path-effect="#path-effect10524"
       inkscape:original-d="m 1058.7715,-66.339066 c 62.802,55.725815 125.603,111.450631 188.4029,167.174446 57.4961,38.9207 114.9888,77.83884 172.4816,116.75676 28.3063,123.8364 56.6104,247.66685 84.914,371.49877 45.1125,67.22593 90.2222,134.44817 135.3317,201.67076 8.8464,62.80324 17.6914,125.60297 26.5356,188.40295 -14.6373,30.01418 -29.2751,60.02618 -43.9142,90.03788" />
    <path
       style="fill:none;stroke:#000000;stroke-width:1px;stroke-linecap:butt;stroke-linejoin:miter;stroke-opacity:1"
       d="m 1308.2064,-98.181818 c 66.3401,62.801971 132.6791,125.60292 176.4628,195.480954 43.7837,69.878034 65.0117,146.829814 86.2407,198.574504 21.229,51.74468 42.4571,78.27979 50.2585,154.61372 7.8015,76.33392 2.177,202.46126 -3.4475,328.59015"
       id="path10526"
       inkscape:path-effect="#path-effect10528"
       inkscape:original-d="m 1308.2064,-98.181818 c 66.3401,62.801983 132.6791,125.602965 199.0172,188.402948 21.2299,76.95586 42.458,153.90763 63.6855,230.85995 21.2299,26.53716 42.458,53.07225 63.6855,79.60688 -5.6237,126.13337 -11.2482,252.2607 -16.8737,378.38955" />
    <path
       style="fill:none;stroke:#000000;stroke-width:1px;stroke-linecap:butt;stroke-linejoin:miter;stroke-opacity:1"
       d="m 1308.2064,-98.181818 c -83.1441,10.614145 -166.2874,21.228183 -265.3546,31.400294 -99.06711,10.172111 -214.05482,19.90184 -322.13845,23.324399 -108.08363,3.422558 -209.25925,0.537954 -310.43792,-2.346737"
       id="path10530"
       inkscape:path-effect="#path-effect10532"
       inkscape:original-d="m 1308.2064,-98.181818 c -83.144,10.615251 -166.2873,21.229289 -249.4349,31.842752 -114.98672,9.73073 -229.97443,19.460459 -344.96315,29.189189 -101.17866,-2.883719 -202.35428,-5.768323 -303.53292,-8.653985" />
    <path
       style="fill:none;stroke:#000000;stroke-width:1px;stroke-linecap:butt;stroke-linejoin:miter;stroke-opacity:1"
       d="m 713.80835,-37.149877 c -17.65583,-1.669425 -35.31275,-3.338954 -52.97074,-5.008584"
       id="path10534"
       inkscape:path-effect="#path-effect10536"
       inkscape:original-d="m 713.80835,-37.149877 c -17.65591,-1.668528 -35.31283,-3.338056 -52.97074,-5.008584" />
    <path
       style="opacity:0.3;fill:#666666;fill-opacity:0.374781;stroke-width:2.65774"
       d="M 1555.9517,1095.2275 C 1423.2908,953.78088 1383.2202,898.0922 1294.8684,732.38329 1238.6103,626.8678 1218.7961,596.64725 1177.0081,552.6231 1148.8352,522.94253 1121.9005,499.54877 1073.3661,462.60609 1025.4575,426.13974 997.6431,408.13962 936.18234,373.82727 845.98714,323.47306 838.05596,317.29004 733.71007,215.98314 652.50502,137.14312 626.02662,112.96805 581.13022,76.676091 555.25661,55.761185 477.99138,-2.1249066 439.21678,-29.643587 l -19.33499,-13.722212 92.56525,1.142882 c 110.56317,1.365098 170.12357,3.097509 187.97836,5.467656 12.7923,1.698122 14.58083,3.140011 65.27449,52.623547 100.38549,97.989134 164.14922,153.784934 269.18951,235.551524 150.024,116.78324 205.2149,170.9636 265.5807,260.71778 28.3071,42.08803 39.6405,61.32052 95.2719,161.6733 67.0779,121.00102 81.3948,142.66972 155.6698,235.60759 17.827,22.30633 38.1887,49.51272 45.2483,60.45867 21.0325,32.61115 28.8471,66.19325 23.5348,101.13685 -2.479,16.3061 -17.5562,71.4159 -19.5105,71.3142 -0.3224,-0.016 -20.4521,-21.2121 -44.7327,-47.1007 z"
       id="path10993" />
    <path
       style="opacity:0.3;fill:#b3b3b3;fill-opacity:0.374781;stroke-width:2.65774"
       d="m 1625.4244,1044.9709 c -0.164,-15.5913 -5.0416,-36.8342 -12.1699,-53.00279 -8.774,-19.90119 -23.6584,-41.09739 -67.6878,-96.39071 C 1477.9576,810.67194 1462.8459,787.33276 1389.2158,654.10319 1321.9988,532.47776 1285.4741,477.28498 1234.2747,419.9706 1192.3381,373.02534 1151.4028,337.92022 994.85235,214.64782 920.59178,156.17287 856.7901,99.189408 762.99165,7.5651055 733.56156,-21.182831 713.97303,-38.329065 709.7999,-38.994698 c -3.63319,-0.579508 10.11165,-1.947067 30.54408,-3.039016 C 845.445,-47.650526 938.18211,-54.5494 1024.2752,-63.155849 l 31.8427,-3.183217 35.8231,31.908188 c 65.8163,58.623616 106.1173,92.337609 193.2209,161.640018 98.0804,78.03589 126.1233,125.60798 186.2386,315.93582 38.2541,121.11447 50.2377,150.31387 109.7772,267.48451 40.8169,80.32562 51.6444,106.78936 61.5624,150.46562 16.3906,72.17967 11.9862,139.78081 -12.0743,185.32371 l -5.1241,9.6991 z"
       id="path11032" />
    <path
       style="opacity:0.3;fill:#ffffff;fill-opacity:0.374781;stroke-width:2.65774"
       d="m 1575.6676,690.6082 c -49.3201,-98.13235 -60.7246,-126.28538 -100.3173,-247.64124 -44.777,-137.24656 -60.1983,-174.93367 -89.1194,-217.79288 -27.3359,-40.51005 -56.6761,-69.2056 -125.7886,-123.02495 -53.023,-41.290058 -199.4792,-166.422207 -197.1776,-168.468462 0.4476,-0.398002 13.352,-2.114422 28.6763,-3.814263 55.2927,-6.133311 203.1402,-24.207087 209.3304,-25.58983 5.402,-1.20666 13.7266,5.919727 56.6332,48.481197 109.2383,108.359736 141.0339,156.497198 190.2784,288.075138 11.8848,31.75543 27.9868,71.8359 35.7822,89.06774 35.4578,78.37963 37.4769,91.75311 36.928,244.59566 -0.2385,66.40541 -1.4325,137.76141 -2.6535,158.56889 l -2.22,37.83182 z"
       id="path11182" />
  </g>
</svg>
