<?xml version="1.0" encoding="UTF-8" standalone="no"?>
<!-- Created with Inkscape (http://www.inkscape.org/) -->

<svg
   width="420mm"
   height="297mm"
   viewBox="0 0 1587.4016 1122.5197"
   version="1.1"
   id="svg5"
   sodipodi:docname="rajz.svg"
   inkscape:version="1.1.2 (b8e25be833, 2022-02-05)"
   xmlns:inkscape="http://www.inkscape.org/namespaces/inkscape"
   xmlns:sodipodi="http://sodipodi.sourceforge.net/DTD/sodipodi-0.dtd"
   xmlns="http://www.w3.org/2000/svg"
   xmlns:svg="http://www.w3.org/2000/svg">
  <sodipodi:namedview
     id="namedview7"
     pagecolor="#505050"
     bordercolor="#eeeeee"
     borderopacity="1"
     inkscape:pageshadow="0"
     inkscape:pageopacity="0"
     inkscape:pagecheckerboard="0"
     inkscape:document-units="px"
     showgrid="false"
     inkscape:snap-nodes="true"
     inkscape:object-paths="true"
     inkscape:zoom="0.2664745"
     inkscape:cx="-350.87785"
     inkscape:cy="531.00766"
     inkscape:window-width="1920"
     inkscape:window-height="1009"
     inkscape:window-x="-8"
     inkscape:window-y="-8"
     inkscape:window-maximized="1"
     inkscape:current-layer="layer1"
     units="mm" />
  <defs
     id="defs2">
    <inkscape:path-effect
       effect="bspline"
       id="path-effect2149"
       is_visible="true"
       lpeversion="1"
       weight="33.333333"
       steps="2"
       helper_size="0"
       apply_no_weight="true"
       apply_with_weight="true"
       only_selected="false" />
    <inkscape:path-effect
       effect="bspline"
       id="path-effect1707"
       is_visible="true"
       lpeversion="1"
       weight="33.333333"
       steps="2"
       helper_size="0"
       apply_no_weight="true"
       apply_with_weight="true"
       only_selected="false" />
    <inkscape:path-effect
       effect="bspline"
       id="path-effect1703"
       is_visible="true"
       lpeversion="1"
       weight="33.333333"
       steps="2"
       helper_size="0"
       apply_no_weight="true"
       apply_with_weight="true"
       only_selected="false" />
    <inkscape:path-effect
       effect="bspline"
       id="path-effect1666"
       is_visible="true"
       lpeversion="1"
       weight="33.333333"
       steps="2"
       helper_size="0"
       apply_no_weight="true"
       apply_with_weight="true"
       only_selected="false" />
    <inkscape:path-effect
       effect="bspline"
       id="path-effect1272"
       is_visible="true"
       lpeversion="1"
       weight="33.333333"
       steps="2"
       helper_size="0"
       apply_no_weight="true"
       apply_with_weight="true"
       only_selected="false" />
    <inkscape:path-effect
       effect="bspline"
       id="path-effect1268"
       is_visible="true"
       lpeversion="1"
       weight="33.333333"
       steps="2"
       helper_size="0"
       apply_no_weight="true"
       apply_with_weight="true"
       only_selected="false" />
    <inkscape:path-effect
       effect="bspline"
       id="path-effect913"
       is_visible="true"
       lpeversion="1"
       weight="33.333333"
       steps="2"
       helper_size="0"
       apply_no_weight="true"
       apply_with_weight="true"
       only_selected="false" />
  </defs>
  <g
     inkscape:label="Réteg 1"
     inkscape:groupmode="layer"
     id="layer1">
    <path
       style="fill:none;stroke:#000000;stroke-width:1.01674px;stroke-linecap:butt;stroke-linejoin:miter;stroke-opacity:1"
       d="m 37.160643,37.423935 c 108.371877,0 216.742797,0 287.419677,29.975992 70.67687,29.975992 103.65866,89.924333 146.92211,123.911033 43.26344,33.9867 96.80533,42.01128 115.43743,64.19788 18.6321,22.18661 2.35537,58.53325 4.49801,83.31579 2.14264,24.78254 22.70271,37.9995 58.6838,36.34671 35.9811,-1.65279 87.38124,-18.17397 128.93112,-10.85639 41.54988,7.31759 73.24666,38.47184 76.03001,86.14868 2.78335,47.67684 -23.34509,111.8735 -26.12885,184.8054 -2.78376,72.9319 17.77633,154.59381 76.88876,172.2943 59.11243,17.70048 156.77279,-28.55887 228.30689,-26.19752 71.5342,2.36136 116.9376,53.34101 171.9805,83.7875 55.0429,30.44649 119.7214,40.35919 161.271,54.04905 41.5495,13.68985 59.9679,31.15513 78.3856,48.61976"
       id="path1664"
       inkscape:path-effect="#path-effect1666"
       inkscape:original-d="m 37.160643,37.423935 c 108.371877,10e-4 216.742797,10e-4 325.112757,0 32.98408,59.951825 65.96587,119.900165 98.94736,179.848655 53.54498,8.02597 107.08686,16.05056 160.62882,24.07423 -16.2764,36.34917 -32.55313,72.69581 -48.83116,109.0421 20.56188,13.21857 41.12196,26.43552 61.68149,39.65169 51.40326,-16.5208 102.8034,-33.042 154.20367,-49.5646 31.69906,31.15656 63.39581,62.31084 95.09229,93.46467 -26.12854,64.20027 -52.25693,128.39695 -78.3869,192.59382 20.56189,81.66626 41.12192,163.32819 61.68151,244.99069 97.66525,-46.26013 195.32562,-92.5195 292.98702,-138.78085 45.4063,50.9828 90.8097,101.9625 136.2132,152.94217 64.6822,9.91418 129.3607,19.8269 194.0397,29.73875 18.4201,17.46703 36.8385,34.93231 55.2563,52.39686" />
    <path
       style="fill:none;stroke:#000000;stroke-width:1.01674px;stroke-linecap:butt;stroke-linejoin:miter;stroke-opacity:1"
       d="M 37.160643,37.423935 C 120.68877,54.88979 204.21578,72.355409 257.11614,105.87152 c 52.90035,33.51611 75.17377,83.07971 105.80098,124.61973 30.62722,41.54002 69.60571,75.05445 85.23955,113.05437 15.63384,37.99991 7.9238,80.483 31.6981,116.59453 23.7743,36.11153 79.02951,65.84969 116.08122,94.40887 37.05171,28.55918 55.89845,55.93717 63.60816,98.18557 7.70972,42.2484 4.28305,99.36454 7.9242,167.10368 3.64114,67.73914 14.34953,146.09684 70.46374,170.1701 56.1142,24.07323 157.62962,-6.13695 228.7349,-33.04368 71.10531,-26.90673 111.79711,-50.50843 148.63531,-60.18513 36.8383,-9.67669 69.8201,-5.42838 106.2298,6.84522 36.4097,12.2736 76.2448,32.57107 117.3661,41.77554 41.1213,9.20448 83.5265,7.31634 118.2227,9.20472 34.6962,1.88838 61.6813,7.55279 88.6658,13.21708"
       id="path1701"
       inkscape:path-effect="#path-effect1703"
       inkscape:original-d="M 37.160643,37.423935 C 120.6886,54.890618 204.2156,72.356253 287.74162,89.820786 c 22.27527,49.566664 44.54869,99.130264 66.82159,148.693774 38.98102,33.51683 77.9595,67.03128 116.9378,100.54532 -7.70938,42.48585 -15.41941,84.96894 -23.13057,127.45181 55.25841,29.7404 110.51362,59.47856 165.76897,89.21626 18.84846,27.38014 37.69519,54.75813 56.54133,82.1356 -3.42588,57.1195 -6.85248,114.23564 -10.28022,171.35187 10.7097,78.36189 21.41811,156.71959 32.1258,235.07778 101.52032,-30.2104 203.03576,-60.42053 304.5522,-90.6324 40.69448,-23.60159 81.38628,-47.2033 122.07788,-70.80655 32.9841,4.24953 65.9659,8.49785 98.9474,12.74518 39.8378,20.29935 79.6729,40.59681 119.5077,60.89363 42.408,-1.88714 84.8132,-3.77528 127.2182,-5.66453 26.9872,5.66571 53.9723,11.33013 80.957,16.99359" />
    <path
       style="fill:none;stroke:#000000;stroke-width:1.01674px;stroke-linecap:butt;stroke-linejoin:miter;stroke-opacity:1"
       d="M 37.160643,37.423935 C 107.83854,71.411666 178.51522,105.39881 221.13513,147.64756 c 42.6199,42.24875 57.18328,92.75642 77.316,131.93624 20.13271,39.17981 45.83281,67.02983 52.47143,107.15394 6.63862,40.1241 -5.7831,92.51991 19.06214,136.18424 24.84524,43.66434 86.95381,78.59487 122.72003,162.85624 35.76623,84.26137 45.1896,217.84707 67.67856,293.37399 22.48895,75.52689 58.04072,92.99219 140.06958,86.85489 82.02886,-6.1372 210.52934,-35.8754 291.70056,-61.1299 81.17117,-25.25457 115.00967,-46.02406 163.19937,-47.67581 48.1897,-1.65175 110.7266,15.81353 163.6274,23.60205 52.9009,7.78852 96.1627,5.90038 132.3579,2.12393 36.1952,-3.77646 65.322,-9.44087 94.4486,-15.10525"
       id="path1705"
       inkscape:path-effect="#path-effect1707"
       inkscape:original-d="M 37.160643,37.423935 C 107.8383,71.412165 178.51499,105.3993 249.1907,139.38538 c 14.56492,50.51076 29.12834,101.01842 43.69103,151.52603 25.70211,27.8522 51.4022,55.70223 77.10185,83.55175 -12.42124,52.39896 -24.84295,104.79477 -37.2659,157.19055 62.11203,34.93301 124.22061,69.86353 186.32945,104.7937 9.42471,133.59212 18.8481,267.17782 28.27069,400.76519 35.55419,17.467 71.10598,34.9322 106.65754,52.3968 128.50665,-29.7383 257.00713,-59.4765 385.50924,-89.2163 33.8408,-20.76924 67.6792,-41.53876 101.5174,-62.30975 62.5403,17.46704 125.0772,34.93231 187.6144,52.39687 43.2647,-1.88717 86.5265,-3.77531 129.7882,-5.66453 29.1289,-5.66358 58.2557,-11.32799 87.3821,-16.99357" />
    <path
       style="fill:#808080;stroke-width:2.70223"
       d="m 632.76187,1061.2408 c -16.05409,-4.497 -33.83744,-15.8592 -43.75361,-27.955 -20.88818,-25.4795 -29.17322,-53.53973 -52.0126,-176.15943 -31.34551,-168.28725 -45.5776,-201.66436 -120.29672,-282.12 -55.02848,-59.25327 -57.73743,-65.43811 -61.09925,-139.49654 -2.95062,-65.0008 -5.25688,-72.66404 -38.40217,-127.60484 -7.98808,-13.24082 -21.86584,-39.97194 -30.83944,-59.4025 C 265.03004,202.32092 243.7755,167.64539 225.43932,149.11711 198.6079,122.00457 148.71465,89.640279 87.91664,59.910179 72.719661,52.478897 60.678191,45.966278 61.157846,45.437701 c 3.07425,-3.387898 113.255584,25.791436 147.212834,38.9864 59.21326,23.008829 82.54844,43.757339 133.7811,118.951599 14.2291,20.88411 39.41634,53.90261 55.97157,73.37441 46.93618,55.205 50.87685,63.52648 62.81388,132.64296 8.73176,50.55767 22.95735,68.79021 90.23568,115.65261 65.68534,45.7528 88.01787,68.99436 99.88642,103.95235 8.50822,25.06003 10.48908,44.90751 13.18104,132.06893 3.40062,110.10874 7.16985,137.74648 24.1415,177.01639 19.50802,45.13825 48.11364,62.03485 104.37678,61.6528 59.53026,-0.40422 131.6311,-21.186 248.01085,-71.4846 66.2305,-28.62434 84.7415,-34.08137 115.4214,-34.02641 29.6733,0.0533 43.9064,3.78764 113.3141,29.73081 66.5855,24.88824 83.6621,28.24285 165.769,32.5643 56.6992,2.98422 100.1584,8.66757 92.5224,12.09957 -7.9147,3.55715 -56.5858,10.59084 -95.7159,13.8324 -50.4567,4.17981 -91.9205,0.84123 -166.4305,-13.40063 -60.5848,-11.58018 -112.3233,-15.25864 -139.976,-9.95182 -9.638,1.84957 -40.7799,11.64863 -69.2043,21.77564 -88.94761,31.68999 -195.36481,59.30489 -288.12657,74.76769 -40.05355,6.6767 -119.95351,9.9754 -135.58126,5.5977 z"
       id="path1833" />
    <path
       style="fill:#808080;stroke-width:2.70223"
       d="m 761.91495,995.43665 c 0,-1.1683 -2.02091,-2.11786 -4.49468,-2.11015 -10.72937,0.0335 -30.79877,-10.87445 -43.49651,-23.64064 -25.64294,-25.78112 -40.1144,-72.1853 -43.41942,-139.22847 -0.84474,-17.1352 -1.96263,-32.69323 -2.48426,-34.57346 -0.52148,-1.88021 -1.48579,-31.19411 -2.14277,-65.14203 -1.33479,-68.97057 -4.27449,-89.07987 -17.12338,-117.12994 -11.55421,-25.22404 -32.2853,-46.64249 -73.53065,-75.9687 -71.83107,-51.07324 -88.58583,-66.42343 -100.29455,-91.88682 -3.86277,-8.4005 -9.74537,-31.39093 -14.15031,-55.30225 C 450.46018,334.44363 447.0276,327.76576 400.57223,273.327 384.23325,254.18016 359.17845,221.30857 344.89488,200.27902 330.61129,179.24947 311.90853,153.92839 303.33316,144.00999 263.6075,98.062533 217.16023,76.409232 98.84211,48.678088 L 59.00616,39.341427 87.276836,39.12924 c 37.074944,-0.278267 122.714634,4.538871 150.348584,8.456946 50.84012,7.20835 88.38495,19.733591 118.88102,39.659598 20.88032,13.643116 37.54903,28.717326 75.6218,68.388036 40.91971,42.63711 48.75982,48.10495 107.09017,74.68684 18.19086,8.28981 36.96015,18.33863 41.7095,22.33073 11.9874,10.07601 15.25404,24.62734 11.60247,51.6834 -4.00435,29.67031 -3.49613,40.52459 2.39627,51.17526 11.82716,21.37793 39.9717,25.09019 109.0898,14.38898 50.9355,-7.88607 76.85374,-6.54152 99.46927,5.16021 21.03658,10.88474 30.29739,19.73296 38.91455,37.1809 14.84568,30.05913 14.57898,47.01407 -2.05636,130.74263 -10.72148,53.96249 -15.06989,96.13842 -12.82577,124.39983 5.43071,68.3945 27.59623,116.49282 62.35169,135.30118 13.19267,7.13935 17.82343,8.03633 45.52718,8.81858 25.00218,0.70594 37.40938,-0.52832 65.53659,-6.5195 109.6557,-23.35696 132.9782,-25.55973 167.5254,-15.82257 26.1023,7.35688 45.9874,17.7395 86.11,44.96067 60.4855,41.03632 84.8011,52.10124 156.8378,71.3696 50.1543,13.41522 71.5629,20.72521 89.4038,30.52711 14.6998,8.07617 35.2303,23.66282 33.5732,25.48879 -0.6126,0.67525 -14.4058,-0.89131 -30.6515,-3.48118 -17.4821,-2.787 -49.0099,-4.92756 -77.2477,-5.24474 -26.2407,-0.29473 -47.7196,-1.49178 -47.7311,-2.66008 -0.014,-1.1683 -4.1175,-2.12419 -9.1243,-2.12419 -16.3325,0 -48.0049,-8.50953 -85.9888,-23.10291 -85.0378,-32.67145 -111.3176,-38.63092 -147.8818,-33.53531 -24.3632,3.39521 -38.6753,8.39115 -101.4143,35.40055 -74.50335,32.07404 -138.51164,53.88139 -187.61442,63.91944 -20.14433,4.11811 -84.81909,7.74675 -84.81493,4.75861 z"
       id="path1909" />
    <path
       style="fill:#666666;stroke-width:2.70223"
       d="m 751.63774,990.73673 c -34.0712,-11.89637 -54.56822,-36.40585 -67.7194,-80.976 -9.2842,-31.4649 -13.18032,-72.24464 -17.1828,-179.84866 -2.8645,-77.01063 -4.40799,-87.71378 -16.59544,-115.07989 -11.95963,-26.85485 -31.55939,-46.76184 -84.37809,-85.7009 -86.2362,-63.5752 -89.30788,-67.87864 -105.7049,-148.09398 -3.59662,-17.5949 -9.41498,-38.46809 -12.9297,-46.38482 -3.51474,-7.91674 -19.88328,-30.87468 -36.37454,-51.0176 C 394.26159,263.49193 365.10057,225.34455 345.9506,198.8629 294.94127,128.32434 280.14047,113.57231 239.35585,92.619373 212.94391,79.050345 178.60591,67.323981 123.06044,52.904751 l -43.493782,-11.2907 60.396432,1.377386 c 99.50494,2.269286 154.61021,12.405924 199.17976,36.639211 28.13852,15.299427 47.09004,31.023372 87.38208,72.500252 37.6353,38.74201 58.05922,53.99217 96.43093,72.00317 71.20067,33.42036 70.31777,32.30676 67.87923,85.61347 -1.91394,41.83892 2.6e-4,49.25546 15.29996,59.27888 11.62088,7.61327 49.67834,8.66967 94.05505,2.61081 50.47487,-6.89151 83.78373,-5.14177 103.7584,5.45049 20.38676,10.81089 30.06728,20.81578 39.05507,40.36367 11.20262,24.365 10.37755,50.30099 -4.03865,126.9475 -10.50028,55.82735 -11.18539,62.25859 -11.16387,104.7937 0.0201,41.29725 0.64838,47.57547 7.07655,70.79075 11.8464,42.78294 30.10561,70.55061 55.44023,84.31067 9.92654,5.39147 16.7295,6.47552 45.57196,7.26198 29.2969,0.79881 39.94804,-0.29251 78.38681,-8.03172 74.431,-14.98571 89.7752,-17.281 115.1602,-17.2263 41.1861,0.0888 64.5479,9.6829 133.0966,54.65967 55.521,36.42875 77.7812,46.15015 154.7502,67.58157 53.8403,14.99144 79.5512,25.24597 98.9474,39.46425 17.2101,12.61577 16.2905,13.14959 -14.5919,8.47066 -10.3504,-1.56815 -43.6842,-4.09316 -74.0753,-5.61113 -30.3909,-1.51797 -63.1934,-4.13097 -72.8944,-5.80666 -9.7009,-1.6757 -45.7455,-13.10998 -80.0991,-25.40947 -77.6417,-27.79784 -97.4404,-32.45818 -128.3783,-30.21863 -27.3058,1.97664 -41.4717,6.51761 -111.8477,35.85333 -119.04239,49.62214 -175.12366,65.6443 -241.58565,69.02004 -21.16663,1.07511 -30.0337,0.30641 -41.12091,-3.56487 z"
       id="path1985" />
    <path
       style="fill:none;stroke:#000000;stroke-width:1.01674px;stroke-linecap:butt;stroke-linejoin:miter;stroke-opacity:1"
       d="M 37.160643,37.423935 C 179.37163,33.64756 321.5817,29.87121 408.96403,52.530405 c 87.38234,22.659196 119.93581,71.750775 164.48428,117.067205 44.54846,45.31644 101.08866,86.85546 153.77541,110.92941 52.68674,24.07395 101.51692,30.68243 143.923,75.52798 42.40608,44.84556 78.38619,127.92358 92.09275,196.84231 13.70656,68.91872 5.13989,123.67471 40.69373,147.74839 35.5539,24.07368 115.2241,17.46521 170.1988,38.13472 54.9746,20.66952 85.251,68.61388 121.6605,84.66254 36.4095,16.04866 78.9501,0.20256 121.6387,18.95099 42.6885,18.74842 85.5221,72.08839 128.3555,125.42817"
       id="path2147"
       inkscape:path-effect="#path-effect2149"
       inkscape:original-d="M 37.160643,37.423935 C 179.37166,33.648652 321.58173,29.872304 463.79081,26.094885 c 32.55574,49.094594 65.10921,98.186175 97.66235,147.277635 56.54344,41.54176 113.08366,83.08076 169.62398,124.61955 48.8332,6.60982 97.66338,13.21829 146.49356,19.82584 35.9826,83.08243 71.96275,166.16044 107.94247,249.23907 -8.56592,54.75924 -17.13271,109.51521 -25.7005,164.27122 79.67453,-6.60767 159.34473,-13.21616 239.01563,-19.82583 30.2786,47.94741 60.5548,95.89184 90.8309,143.83617 42.5433,-15.84566 85.0839,-31.69176 127.6244,-47.53925 42.8361,53.34307 85.6698,106.68295 128.5031,160.02283" />
  </g>
</svg>
